<svg width="39" height="38" viewBox="0 0 39 38" fill="none" xmlns="http://www.w3.org/2000/svg">
<rect x="0.5" width="38" height="38" rx="19" fill="white"/>
<path fill-rule="evenodd" clip-rule="evenodd" d="M17.5 27.2H21.5C24.309 27.2 25.7134 27.2 26.7223 26.5381C27.159 26.2516 27.534 25.8834 27.8259 25.4546C28.5 24.4641 28.5 23.0851 28.5 20.3272C28.5 17.5695 28.5 16.1905 27.8259 15.1999C27.534 14.7711 27.159 14.4029 26.7223 14.1164C26.074 13.6911 25.2624 13.5391 24.0198 13.4848C23.4268 13.4848 22.9163 13.0436 22.8 12.4727C22.6255 11.6164 21.8597 11 20.9703 11H18.0297C17.1402 11 16.3744 11.6164 16.2 12.4727C16.0837 13.0436 15.5732 13.4848 14.9802 13.4848C13.7376 13.5391 12.926 13.6911 12.2777 14.1164C11.841 14.4029 11.466 14.7711 11.1741 15.1999C10.5 16.1905 10.5 17.5695 10.5 20.3272C10.5 23.0851 10.5 24.4641 11.1741 25.4546C11.466 25.8834 11.841 26.2516 12.2777 26.5381C13.2866 27.2 14.6911 27.2 17.5 27.2ZM19.5 16.6455C17.4289 16.6455 15.75 18.2939 15.75 20.3272C15.75 22.3607 17.4289 24.0091 19.5 24.0091C21.5711 24.0091 23.25 22.3607 23.25 20.3272C23.25 18.2939 21.5711 16.6455 19.5 16.6455ZM19.5 18.1182C18.2574 18.1182 17.25 19.1072 17.25 20.3272C17.25 21.5473 18.2574 22.5364 19.5 22.5364C20.7426 22.5364 21.75 21.5473 21.75 20.3272C21.75 19.1072 20.7426 18.1182 19.5 18.1182ZM23.75 17.3818C23.75 16.9751 24.0858 16.6455 24.5 16.6455H25.5C25.9142 16.6455 26.25 16.9751 26.25 17.3818C26.25 17.7885 25.9142 18.1182 25.5 18.1182H24.5C24.0858 18.1182 23.75 17.7885 23.75 17.3818Z" fill="#2970E4"/>
</svg>
